# xmcd
#
# Track frame offsets:
#	150
#	19310
#	37926
#	57138
#	84656
#
# Disc length: 1857 seconds
#
# Revision: 0
# Processed by: cddbd v1.5.1PL0 Copyright (c) Steve Scherf et al.
# Submitted via: EasyCDDAExtractor 7.5.0.1
#
DISCID=34073f05
DTITLE=Max Mutzke - Schwarz auf Weiﬂ
DYEAR=2004
DGENRE=Blues
TTITLE0=Schwarz auf Weiﬂ (Radio Edit)
TTITLE1=Schwarz auf Weiﬂ (Remix)
TTITLE2=Schwarz auf Weiﬂ (Instrumental)
TTITLE3=Schwarz auf Weiﬂ (Radio Edit 2)
TTITLE4=Schwarz auf Weiﬂ (Video)
EXTD=
EXTT0=
EXTT1=
EXTT2=
EXTT3=
EXTT4=
PLAYORDER=
